PS_ngait_og_ss9_kinetics.mot
version=1
nRows=21
nColumns=28
inDegrees=yes
endheader
time	1_ground_force_vx	1_ground_force_vy	1_ground_force_vz	1_ground_force_px	1_ground_force_py	1_ground_force_pz	2_ground_force_vx	2_ground_force_vy	2_ground_force_vz	2_ground_force_px	2_ground_force_py	2_ground_force_pz	3_ground_force_vx	3_ground_force_vy	3_ground_force_vz	3_ground_force_px	3_ground_force_py	3_ground_force_pz	1_ground_torque_x	1_ground_torque_y	1_ground_torque_z	2_ground_torque_x	2_ground_torque_y	2_ground_torque_z	3_ground_torque_x	3_ground_torque_y	3_ground_torque_z
  0.54166667	 43.02960832	760.03393826	 81.05399772	  0.37562083	 -0.00600000	  0.07012326	  0.00000000	  0.00000000	  0.00000000	 -0.30000000	 -0.00600000	  0.20000000	  4.27492099	 41.27482842	 -1.86810655	  0.67394912	 -0.00600000	  0.23330958	  0.00000000	 -4.52732051	  0.00000000	  0.00000000	  0.00000000	  0.00000000	  0.00000000	 -0.35202784	  0.00000000
  0.54250000	 43.63081425	760.26515435	 80.91709012	  0.37597322	 -0.00600000	  0.07004369	  0.00000000	  0.00000000	  0.00000000	 -0.30000000	 -0.00600000	  0.20000000	  6.73282911	 45.79305427	 -1.86393316	  0.67728935	 -0.00600000	  0.23508369	  0.00000000	 -4.53977396	  0.00000000	  0.00000000	  0.00000000	  0.00000000	  0.00000000	 -0.35817691	  0.00000000
  0.54333333	 44.24402108	760.50859264	 80.76763624	  0.37632154	 -0.00600000	  0.06997626	  0.00000000	  0.00000000	  0.00000000	 -0.30000000	 -0.00600000	  0.20000000	  9.37276882	 50.39974500	 -1.84556560	  0.68037462	 -0.00600000	  0.23671512	  0.00000000	 -4.55264139	  0.00000000	  0.00000000	  0.00000000	  0.00000000	  0.00000000	 -0.36561990	  0.00000000
  0.54416667	 44.87434497	760.75788477	 80.60944316	  0.37666895	 -0.00600000	  0.06992065	  0.00000000	  0.00000000	  0.00000000	 -0.30000000	 -0.00600000	  0.20000000	 12.15064854	 55.09275393	 -1.81735563	  0.68323396	 -0.00600000	  0.23818231	  0.00000000	 -4.56408349	  0.00000000	  0.00000000	  0.00000000	  0.00000000	  0.00000000	 -0.37438199	  0.00000000
  0.54500000	 45.52398639	761.00331664	 80.44487716	  0.37701970	 -0.00600000	  0.06987556	  0.00000000	  0.00000000	  0.00000000	 -0.30000000	 -0.00600000	  0.20000000	 15.02428443	 59.87384897	 -1.78345682	  0.68589851	 -0.00600000	  0.23947704	  0.00000000	 -4.57254734	  0.00000000	  0.00000000	  0.00000000	  0.00000000	  0.00000000	 -0.38381217	  0.00000000
  0.54583333	 46.19009749	761.23265284	 80.27506576	  0.37737784	 -0.00600000	  0.06984059	  0.00000000	  0.00000000	  0.00000000	 -0.30000000	 -0.00600000	  0.20000000	 17.95305424	 64.74457963	 -1.74803538	  0.68839486	 -0.00600000	  0.24060305	  0.00000000	 -4.57741005	  0.00000000	  0.00000000	  0.00000000	  0.00000000	  0.00000000	 -0.39265979	  0.00000000
  0.54666667	 46.86628378	761.43285332	 80.09987264	  0.37774658	 -0.00600000	  0.06981574	  0.00000000	  0.00000000	  0.00000000	 -0.30000000	 -0.00600000	  0.20000000	 20.89811018	 69.70110540	 -1.71549936	  0.69073391	 -0.00600000	  0.24157074	  0.00000000	 -4.57899632	  0.00000000	  0.00000000	  0.00000000	  0.00000000	  0.00000000	 -0.39931517	  0.00000000
  0.54750000	 47.54574584	761.59109367	 79.91870465	  0.37812822	 -0.00600000	  0.06979958	  0.00000000	  0.00000000	  0.00000000	 -0.30000000	 -0.00600000	  0.20000000	 23.82203290	 74.73299106	 -1.69016992	  0.69291483	 -0.00600000	  0.24239399	  0.00000000	 -4.57789409	  0.00000000	  0.00000000	  0.00000000	  0.00000000	  0.00000000	 -0.40253093	  0.00000000
  0.54833333	 48.22338828	761.69550552	 79.73164994	  0.37852392	 -0.00600000	  0.06978884	  0.00000000	  0.00000000	  0.00000000	 -0.30000000	 -0.00600000	  0.20000000	 26.68805455	 79.82548329	 -1.67513021	  0.69493642	 -0.00600000	  0.24308980	  0.00000000	 -4.57440557	  0.00000000	  0.00000000	  0.00000000	  0.00000000	  0.00000000	 -0.40230309	  0.00000000
  0.54916667	 48.89628929	761.73680323	 79.53919629	  0.37893318	 -0.00600000	  0.06977999	  0.00000000	  0.00000000	  0.00000000	 -0.30000000	 -0.00600000	  0.20000000	 29.46028802	 84.96092202	 -1.67167807	  0.69679812	 -0.00600000	  0.24367807	  0.00000000	 -4.56869595	  0.00000000	  0.00000000	  0.00000000	  0.00000000	  0.00000000	 -0.39988195	  0.00000000
  0.55000000	 49.56267198	761.71083315	 79.34109275	  0.37935385	 -0.00600000	  0.06977095	  0.00000000	  0.00000000	  0.00000000	 -0.30000000	 -0.00600000	  0.20000000	 32.10401951	 90.11883237	 -1.68006096	  0.69849756	 -0.00600000	  0.24418096	  0.00000000	 -4.56110018	  0.00000000	  0.00000000	  0.00000000	  0.00000000	  0.00000000	 -0.39691821	  0.00000000
  0.55083333	 50.22038911	761.62007079	 79.13598045	  0.37978251	 -0.00600000	  0.06976116	  0.00000000	  0.00000000	  0.00000000	 -0.30000000	 -0.00600000	  0.20000000	 34.58499352	 95.27675574	 -1.70017472	  0.70003630	 -0.00600000	  0.24462105	  0.00000000	 -4.55225703	  0.00000000	  0.00000000	  0.00000000	  0.00000000	  0.00000000	 -0.39473886	  0.00000000
  0.55166667	 50.86636773	761.47257644	 78.92198184	  0.38021496	 -0.00600000	  0.06975097	  0.00000000	  0.00000000	  0.00000000	 -0.30000000	 -0.00600000	  0.20000000	 36.86936846	100.41213607	 -1.73166122	  0.70142803	 -0.00600000	  0.24501786	  0.00000000	 -4.54314138	  0.00000000	  0.00000000	  0.00000000	  0.00000000	  0.00000000	 -0.39410573	  0.00000000
  0.55250000	 51.49777207	761.27902790	 78.69750117	  0.38064693	 -0.00600000	  0.06974144	  0.00000000	  0.00000000	  0.00000000	 -0.30000000	 -0.00600000	  0.20000000	 38.92564335	105.50370597	 -1.77390555	  0.70269851	 -0.00600000	  0.24538522	  0.00000000	 -4.53495515	  0.00000000	  0.00000000	  0.00000000	  0.00000000	  0.00000000	 -0.39531305	  0.00000000
  0.55333333	 52.11389231	761.04843430	 78.46117837	  0.38107510	 -0.00600000	  0.06973456	  0.00000000	  0.00000000	  0.00000000	 -0.30000000	 -0.00600000	  0.20000000	 40.72685007	110.53156902	 -1.82593376	  0.70387776	 -0.00600000	  0.24573066	  0.00000000	 -4.52896286	  0.00000000	  0.00000000	  0.00000000	  0.00000000	  0.00000000	 -0.39852541	  0.00000000
  0.55416667	 52.71632689	760.78512915	 78.21100140	  0.38149795	 -0.00600000	  0.06973242	  0.00000000	  0.00000000	  0.00000000	 -0.30000000	 -0.00600000	  0.20000000	 42.25110976	115.47654792	 -1.88621338	  0.70499016	 -0.00600000	  0.24605480	  0.00000000	 -4.52627208	  0.00000000	  0.00000000	  0.00000000	  0.00000000	  0.00000000	 -0.40394719	  0.00000000
  0.55500000	 53.30733516	760.49076977	 77.94383376	  0.38191586	 -0.00600000	  0.06973601	  0.00000000	  0.00000000	  0.00000000	 -0.30000000	 -0.00600000	  0.20000000	 43.48089115	120.31999061	 -1.95254793	  0.70604759	 -0.00600000	  0.24635207	  0.00000000	 -4.52764883	  0.00000000	  0.00000000	  0.00000000	  0.00000000	  0.00000000	 -0.41163586	  0.00000000
  0.55583333	 53.88873414	760.16869946	 77.65561441	  0.38232945	 -0.00600000	  0.06974491	  0.00000000	  0.00000000	  0.00000000	 -0.30000000	 -0.00600000	  0.20000000	 44.40198160	125.04572300	 -2.02194535	  0.70705192	 -0.00600000	  0.24661517	  0.00000000	 -4.53362489	  0.00000000	  0.00000000	  0.00000000	  0.00000000	  0.00000000	 -0.42139507	  0.00000000
  0.55666667	 54.46220904	759.82453180	 77.34186522	  0.38273667	 -0.00600000	  0.06975734	  0.00000000	  0.00000000	  0.00000000	 -0.30000000	 -0.00600000	  0.20000000	 45.00316796	129.64333101	 -2.09046803	  0.70800780	 -0.00600000	  0.24684037	  0.00000000	 -4.54483258	  0.00000000	  0.00000000	  0.00000000	  0.00000000	  0.00000000	 -0.43296877	  0.00000000
  0.55750000	 55.02996820	759.46244516	 76.99845555	  0.38313136	 -0.00600000	  0.06977131	  0.00000000	  0.00000000	  0.00000000	 -0.30000000	 -0.00600000	  0.20000000	 45.27723722	134.10944300	 -2.15357443	  0.70893331	 -0.00600000	  0.24702888	  0.00000000	 -4.56223449	  0.00000000	  0.00000000	  0.00000000	  0.00000000	  0.00000000	 -0.44632877	  0.00000000
  0.55833333	 55.59504796	759.08130168	 76.62263759	  0.38350694	 -0.00600000	  0.06978616	  0.00000000	  0.00000000	  0.00000000	 -0.30000000	 -0.00600000	  0.20000000	 45.22220645	138.44679440	 -2.20765276	  0.70985839	 -0.00600000	  0.24718544	  0.00000000	 -4.58682807	  0.00000000	  0.00000000	  0.00000000	  0.00000000	  0.00000000	 -0.46181929	  0.00000000
